<svg width="304" height="75" viewBox="0 0 304 75" fill="none" xmlns="http://www.w3.org/2000/svg">
<path fill-rule="evenodd" clip-rule="evenodd" d="M267.357 75C268.176 75 268.959 74.6652 269.525 74.0734L302.516 39.5734C303.625 38.4136 303.625 36.5864 302.516 35.4267L269.525 0.92664C268.959 0.334782 268.176 1.21839e-05 267.357 1.21124e-05L2.99857 -6.44043e-05C1.34171 -6.45492e-05 -0.00142789 1.34308 -0.00142803 2.99994L-0.00143406 72C-0.00143421 73.6568 1.34171 75 2.99854 75L267.357 75ZM267 29C262.029 29 258 33.0294 258 38C258 42.9706 262.029 47 267 47C271.971 47 276 42.9706 276 38C276 33.0294 271.971 29 267 29Z" fill="#D3D8FF"/>
</svg>
