<svg width="31" height="31" viewBox="0 0 31 31" fill="none" xmlns="http://www.w3.org/2000/svg">
<g clip-path="url(#clip0)">
<path d="M24.8891 9.22799L26.7452 7.37187L24.9188 5.5448L22.9332 7.53042C21.1193 6.24494 19.0026 5.45268 16.7904 5.23125V2.58333H19.3737V0H11.6237V2.58333H14.207V5.23125C11.9949 5.45268 9.87812 6.24494 8.06419 7.53042L6.07858 5.5448L4.25216 7.37187L6.10829 9.22799C4.37571 11.0624 3.21837 13.3641 2.77919 15.8489C2.34001 18.3337 2.63823 20.8927 3.63702 23.2099C4.63581 25.5271 6.29143 27.501 8.39941 28.8878C10.5074 30.2747 12.9754 31.0137 15.4987 31.0137C18.022 31.0137 20.49 30.2747 22.598 28.8878C24.706 27.501 26.3616 25.5271 27.3604 23.2099C28.3592 20.8927 28.6574 18.3337 28.2182 15.8489C27.779 13.3641 26.6217 11.0624 24.8891 9.22799ZM15.4987 28.4167C13.455 28.4167 11.4571 27.8106 9.75781 26.6752C8.0585 25.5397 6.73406 23.9259 5.95195 22.0377C5.16984 20.1496 4.96521 18.0719 5.36392 16.0674C5.76264 14.0629 6.74679 12.2217 8.19193 10.7766C9.63708 9.33142 11.4783 8.34727 13.4828 7.94855C15.4872 7.54984 17.5649 7.75447 19.4531 8.53658C21.3413 9.31868 22.9551 10.6431 24.0906 12.3424C25.226 14.0417 25.832 16.0396 25.832 18.0833C25.829 20.823 24.7393 23.4495 22.8021 25.3867C20.8649 27.3239 18.2383 28.4136 15.4987 28.4167Z" fill="#141414"/>
<path d="M15.5 10.3335V18.0835H7.75C7.75 19.6163 8.20453 21.1147 9.05611 22.3892C9.90769 23.6636 11.1181 24.657 12.5342 25.2436C13.9503 25.8301 15.5086 25.9836 17.012 25.6846C18.5153 25.3855 19.8962 24.6474 20.9801 23.5636C22.0639 22.4797 22.8021 21.0988 23.1011 19.5954C23.4001 18.0921 23.2466 16.5338 22.6601 15.1177C22.0735 13.7016 21.0802 12.4912 19.8057 11.6396C18.5312 10.788 17.0328 10.3335 15.5 10.3335Z" fill="#141414"/>
</g>
<defs>
<clipPath id="clip0">
<rect width="31" height="31" fill="white"/>
</clipPath>
</defs>
</svg>
